<svg width="192" height="192" viewBox="0 0 192 192" xmlns="http://www.w3.org/2000/svg">
  <defs>
    <linearGradient id="petalGradient192" x1="0%" y1="0%" x2="100%" y2="100%">
      <stop offset="0%" style="stop-color:#e83e8c;stop-opacity:1" />
      <stop offset="100%" style="stop-color:#d63384;stop-opacity:1" />
    </linearGradient>
    <linearGradient id="centerGradient192" x1="0%" y1="0%" x2="100%" y2="100%">
      <stop offset="0%" style="stop-color:#f8bbd0;stop-opacity:1" />
      <stop offset="100%" style="stop-color:#ff6b6b;stop-opacity:1" />
    </linearGradient>
  </defs>
  
  <!-- Fondo circular -->
  <circle cx="96" cy="96" r="94" fill="#fff9fb" stroke="#e83e8c" stroke-width="3"/>
  
  <!-- Pétalos -->
  <ellipse cx="96" cy="50" rx="16" ry="28" fill="url(#petalGradient192)" transform="rotate(0 96 96)"/>
  <ellipse cx="96" cy="50" rx="16" ry="28" fill="url(#petalGradient192)" transform="rotate(45 96 96)"/>
  <ellipse cx="96" cy="50" rx="16" ry="28" fill="url(#petalGradient192)" transform="rotate(90 96 96)"/>
  <ellipse cx="96" cy="50" rx="16" ry="28" fill="url(#petalGradient192)" transform="rotate(135 96 96)"/>
  <ellipse cx="96" cy="50" rx="16" ry="28" fill="url(#petalGradient192)" transform="rotate(180 96 96)"/>
  <ellipse cx="96" cy="50" rx="16" ry="28" fill="url(#petalGradient192)" transform="rotate(225 96 96)"/>
  <ellipse cx="96" cy="50" rx="16" ry="28" fill="url(#petalGradient192)" transform="rotate(270 96 96)"/>
  <ellipse cx="96" cy="50" rx="16" ry="28" fill="url(#petalGradient192)" transform="rotate(315 96 96)"/>
  
  <!-- Centro de la flor -->
  <circle cx="96" cy="96" r="20" fill="url(#centerGradient192)" stroke="#d63384" stroke-width="2"/>
  
  <!-- Detalles decorativos -->
  <text x="96" y="103" text-anchor="middle" font-size="22" fill="white" font-family="Arial, sans-serif">T</text>
</svg>